<svg width="688" height="261" viewBox="0 0 688 261" fill="none" xmlns="http://www.w3.org/2000/svg">
<g clip-path="url(#clip0_22_2)">
<path opacity="0.74" d="M595.976 252.334C595.976 253.739 595.964 255.143 595.94 256.545H91.34C91.3173 255.145 91.3053 253.741 91.304 252.334C91.304 112.972 204.279 -0.000976562 343.641 -0.000976562C483.003 -0.000976562 595.976 112.973 595.976 252.334Z" fill="#CA2942"/>
<path d="M150.622 247.708H150.609C150.361 247.705 150.125 247.603 149.952 247.426C149.779 247.249 149.683 247.011 149.685 246.763C149.712 244.534 149.777 242.279 149.878 240.063C149.888 239.816 149.996 239.583 150.178 239.415C150.269 239.332 150.375 239.268 150.491 239.227C150.607 239.185 150.729 239.167 150.852 239.173C151.1 239.184 151.332 239.294 151.499 239.477C151.666 239.66 151.754 239.902 151.742 240.149C151.642 242.349 151.576 244.582 151.551 246.789C151.547 247.033 151.448 247.266 151.274 247.438C151.1 247.61 150.866 247.707 150.622 247.708ZM536.622 245.343C536.378 245.343 536.144 245.248 535.969 245.077C535.794 244.906 535.694 244.674 535.688 244.43C535.636 242.23 535.543 239.992 535.418 237.793C535.403 237.626 535.433 237.458 535.505 237.307C535.577 237.156 535.688 237.026 535.827 236.933C535.966 236.839 536.127 236.785 536.294 236.775C536.462 236.765 536.628 236.8 536.777 236.877C536.926 236.954 537.051 237.069 537.14 237.211C537.229 237.353 537.279 237.516 537.283 237.683C537.413 239.906 537.505 242.16 537.558 244.383C537.561 244.506 537.54 244.628 537.496 244.742C537.452 244.857 537.385 244.961 537.301 245.05C537.216 245.139 537.115 245.21 537.003 245.26C536.891 245.31 536.77 245.337 536.647 245.34L536.622 245.343ZM151.467 231.71H151.377C151.131 231.686 150.905 231.565 150.748 231.374C150.591 231.183 150.516 230.938 150.539 230.692C150.749 228.473 150.998 226.229 151.283 224.025C151.299 223.903 151.338 223.786 151.399 223.679C151.46 223.572 151.542 223.479 151.639 223.404C151.736 223.329 151.847 223.274 151.966 223.242C152.085 223.21 152.208 223.202 152.33 223.218C152.452 223.234 152.57 223.273 152.677 223.334C152.783 223.395 152.877 223.477 152.952 223.574C153.027 223.671 153.082 223.783 153.115 223.901C153.147 224.02 153.155 224.144 153.139 224.266C152.856 226.449 152.609 228.666 152.402 230.866C152.379 231.098 152.271 231.313 152.098 231.469C151.925 231.625 151.7 231.711 151.467 231.71ZM535.574 229.361C535.343 229.36 535.121 229.274 534.949 229.12C534.778 228.965 534.669 228.753 534.644 228.523C534.411 226.331 534.137 224.123 533.829 221.932C533.812 221.81 533.819 221.687 533.849 221.568C533.88 221.449 533.934 221.338 534.007 221.239C534.081 221.141 534.173 221.059 534.279 220.996C534.385 220.934 534.502 220.893 534.623 220.876C534.745 220.859 534.868 220.866 534.987 220.896C535.106 220.927 535.218 220.98 535.316 221.054C535.414 221.128 535.496 221.22 535.559 221.326C535.621 221.432 535.662 221.548 535.679 221.67C535.991 223.87 536.268 226.112 536.504 228.326C536.517 228.449 536.505 228.572 536.47 228.69C536.435 228.808 536.377 228.918 536.299 229.014C536.221 229.11 536.125 229.189 536.016 229.247C535.908 229.305 535.789 229.342 535.666 229.354L535.574 229.361ZM153.627 215.839C153.571 215.839 153.516 215.834 153.461 215.824C153.34 215.802 153.225 215.757 153.122 215.691C153.019 215.624 152.929 215.538 152.859 215.438C152.789 215.337 152.74 215.223 152.714 215.103C152.688 214.984 152.685 214.86 152.707 214.739C153.097 212.547 153.532 210.339 154 208.158C154.052 207.916 154.199 207.704 154.407 207.569C154.615 207.434 154.868 207.388 155.11 207.439C155.23 207.465 155.344 207.514 155.446 207.583C155.547 207.653 155.633 207.742 155.7 207.845C155.834 208.052 155.88 208.304 155.829 208.545C155.366 210.701 154.934 212.892 154.547 215.063C154.509 215.28 154.396 215.476 154.228 215.618C154.06 215.76 153.847 215.838 153.627 215.839ZM533.227 213.518C533.01 213.518 532.8 213.442 532.633 213.304C532.466 213.165 532.352 212.973 532.311 212.76C531.892 210.594 531.437 208.406 530.949 206.265C530.893 206.024 530.936 205.77 531.067 205.56C531.198 205.349 531.408 205.2 531.649 205.144C531.891 205.088 532.144 205.131 532.354 205.262C532.565 205.393 532.714 205.603 532.77 205.844C533.262 208.012 533.725 210.221 534.144 212.408C534.191 212.651 534.139 212.903 534 213.109C533.86 213.314 533.646 213.455 533.402 213.502C533.343 213.513 533.282 213.518 533.222 213.517L533.227 213.518ZM157.096 200.203C157.015 200.203 156.934 200.192 156.855 200.172C156.736 200.14 156.625 200.086 156.528 200.011C156.43 199.937 156.348 199.843 156.287 199.737C156.225 199.631 156.186 199.514 156.169 199.392C156.153 199.27 156.161 199.147 156.193 199.028C156.765 196.878 157.385 194.708 158.033 192.577C158.068 192.459 158.126 192.349 158.203 192.253C158.281 192.158 158.377 192.078 158.485 192.02C158.593 191.962 158.712 191.925 158.834 191.913C158.957 191.9 159.08 191.912 159.198 191.948C159.316 191.983 159.426 192.041 159.521 192.119C159.617 192.197 159.696 192.293 159.754 192.401C159.812 192.509 159.849 192.628 159.861 192.751C159.874 192.873 159.862 192.997 159.826 193.115C159.183 195.225 158.569 197.374 158.003 199.503C157.951 199.704 157.834 199.882 157.67 200.008C157.505 200.135 157.304 200.204 157.096 200.203ZM529.563 197.928C529.359 197.928 529.161 197.861 528.998 197.738C528.836 197.615 528.718 197.441 528.663 197.245C528.07 195.118 527.431 192.977 526.763 190.878C526.726 190.761 526.712 190.638 526.723 190.515C526.733 190.393 526.768 190.274 526.824 190.165C526.881 190.056 526.958 189.959 527.052 189.88C527.146 189.801 527.255 189.741 527.372 189.704C527.489 189.667 527.612 189.653 527.735 189.664C527.857 189.674 527.976 189.709 528.085 189.765C528.194 189.822 528.291 189.899 528.37 189.993C528.449 190.087 528.509 190.196 528.546 190.313C529.219 192.433 529.864 194.596 530.465 196.741C530.531 196.98 530.5 197.235 530.378 197.451C530.256 197.667 530.054 197.826 529.815 197.893C529.733 197.916 529.649 197.928 529.564 197.929L529.563 197.928ZM161.863 184.89C161.755 184.89 161.649 184.872 161.547 184.836C161.431 184.795 161.325 184.731 161.234 184.648C161.143 184.566 161.069 184.466 161.017 184.355C160.965 184.244 160.935 184.124 160.929 184.001C160.923 183.878 160.941 183.756 160.983 183.64C161.735 181.54 162.535 179.422 163.361 177.355C163.453 177.125 163.633 176.941 163.861 176.843C164.088 176.745 164.346 176.741 164.576 176.833C164.69 176.879 164.794 176.946 164.882 177.032C164.97 177.118 165.041 177.22 165.089 177.333C165.138 177.446 165.163 177.567 165.165 177.69C165.166 177.813 165.144 177.935 165.098 178.049C164.281 180.102 163.489 182.197 162.743 184.278C162.678 184.457 162.559 184.612 162.403 184.722C162.247 184.831 162.062 184.891 161.871 184.892L161.863 184.89ZM524.608 182.696C524.417 182.696 524.231 182.638 524.074 182.528C523.918 182.419 523.798 182.265 523.732 182.086C522.963 180.022 522.148 177.942 521.308 175.901C521.214 175.672 521.214 175.415 521.31 175.186C521.405 174.957 521.587 174.776 521.816 174.681C522.045 174.587 522.302 174.587 522.531 174.683C522.76 174.778 522.942 174.96 523.036 175.189C523.874 177.249 524.712 179.35 525.485 181.435C525.537 181.576 525.553 181.728 525.534 181.877C525.514 182.026 525.459 182.169 525.373 182.292C525.287 182.415 525.172 182.516 525.039 182.586C524.906 182.655 524.757 182.692 524.607 182.692L524.608 182.696ZM167.914 170.018C167.78 170.018 167.648 169.989 167.526 169.932C167.301 169.829 167.126 169.641 167.039 169.409C166.952 169.177 166.961 168.92 167.063 168.694C167.989 166.666 168.963 164.623 169.963 162.629C170.018 162.519 170.094 162.42 170.187 162.34C170.279 162.259 170.387 162.197 170.504 162.158C170.621 162.119 170.744 162.104 170.867 162.113C170.99 162.121 171.11 162.155 171.22 162.21C171.442 162.321 171.611 162.516 171.69 162.752C171.768 162.987 171.75 163.245 171.639 163.467C170.652 165.443 169.688 167.467 168.771 169.474C168.696 169.637 168.576 169.775 168.425 169.872C168.274 169.969 168.098 170.02 167.918 170.019L167.914 170.018ZM518.409 167.948C518.233 167.946 518.061 167.895 517.913 167.8C517.765 167.706 517.646 167.571 517.571 167.412C516.637 165.422 515.652 163.421 514.638 161.464C514.525 161.243 514.504 160.987 514.58 160.751C514.656 160.515 514.823 160.319 515.043 160.206C515.264 160.093 515.52 160.072 515.756 160.148C515.992 160.224 516.188 160.391 516.301 160.611C517.317 162.587 518.31 164.611 519.255 166.611C519.36 166.836 519.372 167.093 519.288 167.326C519.204 167.559 519.031 167.75 518.807 167.856C518.683 167.915 518.547 167.946 518.409 167.948ZM175.174 155.708C175.014 155.709 174.857 155.668 174.717 155.589C174.61 155.529 174.516 155.449 174.44 155.352C174.364 155.256 174.308 155.145 174.275 155.027C174.241 154.909 174.232 154.786 174.246 154.664C174.261 154.542 174.299 154.424 174.359 154.317C175.451 152.373 176.59 150.417 177.747 148.517C177.876 148.306 178.084 148.155 178.325 148.096C178.565 148.038 178.819 148.077 179.031 148.205C179.136 148.269 179.227 148.352 179.3 148.451C179.373 148.55 179.425 148.663 179.454 148.782C179.513 149.023 179.474 149.277 179.345 149.489C178.199 151.375 177.07 153.306 175.993 155.234C175.911 155.379 175.792 155.499 175.648 155.583C175.504 155.667 175.341 155.71 175.174 155.71V155.708ZM511.008 153.779C510.844 153.779 510.682 153.736 510.54 153.654C510.398 153.572 510.28 153.454 510.197 153.312C509.097 151.403 507.951 149.49 506.788 147.624C506.657 147.413 506.616 147.16 506.672 146.918C506.728 146.677 506.878 146.468 507.088 146.337C507.299 146.206 507.552 146.164 507.794 146.221C508.035 146.277 508.244 146.427 508.375 146.637C509.55 148.523 510.709 150.454 511.817 152.38C511.899 152.522 511.943 152.683 511.943 152.847C511.943 153.012 511.899 153.173 511.817 153.315C511.735 153.457 511.617 153.575 511.474 153.657C511.332 153.739 511.17 153.782 511.006 153.781L511.008 153.779ZM183.588 142.062C183.402 142.062 183.22 142.006 183.066 141.901C182.964 141.832 182.877 141.744 182.809 141.641C182.741 141.539 182.695 141.424 182.671 141.303C182.648 141.182 182.649 141.058 182.673 140.938C182.698 140.817 182.746 140.703 182.815 140.601C184.072 138.757 185.358 136.907 186.67 135.101C186.742 135.001 186.833 134.917 186.937 134.852C187.042 134.788 187.158 134.744 187.279 134.725C187.401 134.705 187.526 134.71 187.646 134.738C187.766 134.767 187.879 134.819 187.979 134.892C188.18 135.038 188.315 135.257 188.354 135.502C188.393 135.747 188.333 135.998 188.188 136.199C186.888 137.984 185.603 139.815 184.369 141.646C184.283 141.773 184.168 141.877 184.032 141.949C183.897 142.021 183.745 142.058 183.592 142.057L183.588 142.062ZM502.448 140.262C502.297 140.262 502.148 140.226 502.015 140.156C501.881 140.087 501.766 139.986 501.679 139.862C500.422 138.052 499.123 136.239 497.807 134.473C497.659 134.274 497.596 134.025 497.632 133.779C497.668 133.534 497.8 133.313 497.999 133.165C498.198 133.017 498.448 132.954 498.693 132.99C498.938 133.026 499.159 133.158 499.307 133.357C500.635 135.14 501.951 136.971 503.217 138.804C503.313 138.944 503.37 139.109 503.38 139.279C503.39 139.449 503.353 139.618 503.274 139.769C503.195 139.919 503.076 140.045 502.93 140.134C502.785 140.222 502.618 140.268 502.448 140.269V140.262ZM193.106 129.162C192.893 129.161 192.686 129.087 192.521 128.952C192.425 128.875 192.346 128.78 192.287 128.673C192.228 128.565 192.19 128.447 192.177 128.325C192.164 128.203 192.174 128.08 192.209 127.962C192.243 127.844 192.3 127.735 192.377 127.639C193.77 125.902 195.216 124.167 196.67 122.481C196.75 122.388 196.848 122.311 196.957 122.256C197.067 122.2 197.186 122.167 197.308 122.158C197.431 122.148 197.554 122.163 197.67 122.202C197.787 122.24 197.895 122.301 197.988 122.381C198.081 122.461 198.158 122.558 198.213 122.668C198.269 122.777 198.302 122.897 198.311 123.019C198.321 123.142 198.306 123.265 198.267 123.381C198.229 123.498 198.168 123.606 198.088 123.699C196.649 125.375 195.218 127.089 193.835 128.807C193.749 128.917 193.64 129.007 193.515 129.07C193.39 129.132 193.252 129.165 193.112 129.167L193.106 129.162ZM492.796 127.479C492.658 127.479 492.522 127.449 492.397 127.39C492.272 127.33 492.162 127.244 492.075 127.137C490.675 125.437 489.226 123.737 487.769 122.083C487.688 121.991 487.625 121.884 487.586 121.768C487.546 121.651 487.529 121.529 487.537 121.406C487.544 121.283 487.576 121.164 487.63 121.053C487.684 120.943 487.759 120.844 487.851 120.763C487.943 120.682 488.05 120.619 488.166 120.579C488.283 120.54 488.405 120.523 488.528 120.531C488.651 120.538 488.771 120.57 488.881 120.624C488.991 120.678 489.09 120.753 489.171 120.845C490.638 122.521 492.104 124.231 493.518 125.945C493.63 126.082 493.701 126.248 493.723 126.424C493.744 126.6 493.716 126.778 493.64 126.938C493.564 127.098 493.445 127.234 493.295 127.328C493.146 127.423 492.972 127.474 492.795 127.474L492.796 127.479ZM203.659 117.1C203.419 117.1 203.188 117.007 203.014 116.842C202.835 116.671 202.731 116.436 202.724 116.189C202.718 115.941 202.81 115.701 202.981 115.522C204.515 113.907 206.096 112.298 207.681 110.739C207.769 110.653 207.872 110.585 207.986 110.538C208.1 110.492 208.221 110.469 208.344 110.47C208.467 110.471 208.588 110.496 208.701 110.544C208.814 110.592 208.917 110.661 209.003 110.749C209.176 110.926 209.272 111.165 209.27 111.413C209.267 111.66 209.167 111.897 208.99 112.071C207.419 113.617 205.847 115.214 204.333 116.808C204.246 116.9 204.141 116.974 204.025 117.024C203.908 117.074 203.783 117.1 203.656 117.099L203.659 117.1ZM482.135 115.55C482.01 115.55 481.886 115.525 481.77 115.477C481.654 115.428 481.55 115.357 481.462 115.267C479.928 113.687 478.342 112.11 476.754 110.582C476.575 110.41 476.472 110.174 476.467 109.927C476.462 109.679 476.555 109.439 476.727 109.26C476.899 109.081 477.135 108.978 477.383 108.973C477.63 108.968 477.87 109.061 478.049 109.233C479.649 110.777 481.255 112.376 482.805 113.964C482.977 114.142 483.071 114.382 483.068 114.629C483.064 114.877 482.962 115.113 482.784 115.286C482.611 115.457 482.377 115.552 482.134 115.55H482.135ZM215.16 105.95C215.028 105.95 214.897 105.923 214.777 105.869C214.656 105.815 214.548 105.736 214.46 105.638C214.378 105.546 214.315 105.44 214.275 105.324C214.234 105.208 214.217 105.085 214.224 104.962C214.231 104.84 214.262 104.72 214.315 104.609C214.369 104.499 214.443 104.4 214.535 104.318C216.196 102.837 217.904 101.364 219.614 99.941C219.708 99.8623 219.817 99.803 219.934 99.7665C220.051 99.7299 220.175 99.7167 220.297 99.7278C220.419 99.7388 220.538 99.7739 220.646 99.8309C220.755 99.8879 220.852 99.9657 220.93 100.06C221.089 100.251 221.165 100.497 221.143 100.744C221.121 100.991 221.001 101.219 220.811 101.378C219.118 102.786 217.427 104.244 215.783 105.713C215.612 105.866 215.391 105.951 215.161 105.95H215.16ZM470.509 104.527C470.283 104.527 470.065 104.445 469.895 104.297C468.231 102.845 466.522 101.404 464.812 100.012C464.717 99.9344 464.638 99.8388 464.58 99.7307C464.521 99.6225 464.485 99.504 464.472 99.3818C464.46 99.2595 464.472 99.1361 464.507 99.0184C464.542 98.9007 464.6 98.7912 464.678 98.696C464.756 98.6007 464.851 98.5217 464.959 98.4634C465.068 98.4051 465.186 98.3687 465.308 98.3563C465.431 98.3438 465.554 98.3556 465.672 98.3909C465.789 98.4262 465.899 98.4843 465.994 98.562C467.72 99.968 469.447 101.422 471.125 102.886C471.268 103.012 471.369 103.178 471.416 103.362C471.462 103.547 471.451 103.741 471.384 103.919C471.317 104.097 471.198 104.25 471.041 104.359C470.885 104.467 470.699 104.527 470.509 104.527ZM227.534 95.792C227.389 95.7925 227.246 95.759 227.116 95.6943C226.986 95.6295 226.873 95.5352 226.786 95.419C226.638 95.2208 226.573 94.9718 226.608 94.7265C226.642 94.4812 226.773 94.2595 226.97 94.11C228.745 92.771 230.57 91.445 232.388 90.169C232.489 90.0981 232.602 90.0479 232.723 90.0211C232.843 89.9944 232.967 89.9916 233.088 90.013C233.331 90.0569 233.547 90.1954 233.688 90.398C233.829 90.6011 233.884 90.8518 233.841 91.0954C233.798 91.339 233.66 91.5557 233.458 91.698C231.658 92.955 229.85 94.275 228.092 95.598C227.93 95.7206 227.733 95.787 227.53 95.787L227.534 95.792ZM457.996 94.5C457.797 94.4993 457.604 94.4356 457.443 94.318C455.666 93.009 453.843 91.718 452.023 90.467C451.833 90.3221 451.706 90.1101 451.668 89.8745C451.63 89.6389 451.683 89.3975 451.817 89.2C451.951 89.0024 452.156 88.8636 452.389 88.8121C452.622 88.7606 452.866 88.8003 453.071 88.923C454.908 90.18 456.75 91.49 458.544 92.812C458.703 92.9285 458.822 93.0924 458.882 93.2804C458.943 93.4683 458.942 93.6705 458.88 93.858C458.819 94.0456 458.699 94.2088 458.539 94.3244C458.379 94.4399 458.187 94.5017 457.989 94.501L457.996 94.5ZM240.696 86.7C240.538 86.6998 240.383 86.6598 240.244 86.5836C240.106 86.5074 239.989 86.3974 239.904 86.264C239.838 86.1601 239.794 86.0443 239.773 85.9231C239.752 85.802 239.755 85.6779 239.782 85.558C239.809 85.4381 239.859 85.3247 239.93 85.2243C240.001 85.1239 240.091 85.0385 240.195 84.973C242.081 83.787 243.995 82.616 245.917 81.495C246.131 81.3701 246.386 81.3352 246.626 81.398C246.866 81.4608 247.072 81.6161 247.197 81.83C247.321 82.0441 247.356 82.2986 247.293 82.5381C247.23 82.7775 247.075 82.9824 246.862 83.108C244.962 84.218 243.055 85.377 241.203 86.555C241.051 86.6496 240.875 86.6989 240.696 86.697V86.7ZM444.718 85.546C444.545 85.5465 444.375 85.4987 444.228 85.408C442.342 84.251 440.428 83.108 438.504 82.018C438.397 81.9573 438.304 81.8762 438.228 81.7793C438.153 81.6824 438.097 81.5716 438.065 81.4532C438.032 81.3348 438.023 81.2111 438.038 81.0893C438.053 80.9674 438.092 80.8497 438.153 80.743C438.214 80.6362 438.295 80.5424 438.392 80.467C438.489 80.3916 438.599 80.336 438.718 80.3034C438.836 80.2708 438.96 80.2618 439.082 80.277C439.204 80.2922 439.321 80.3313 439.428 80.392C441.366 81.492 443.31 82.646 445.209 83.815C445.383 83.9216 445.516 84.082 445.59 84.2717C445.664 84.4614 445.675 84.6701 445.619 84.866C445.563 85.0612 445.445 85.2329 445.283 85.3551C445.121 85.4772 444.923 85.5432 444.72 85.543L444.718 85.546ZM254.557 78.726C254.385 78.728 254.215 78.6824 254.068 78.5941C253.92 78.5059 253.799 78.3785 253.719 78.226C253.606 78.0061 253.585 77.7505 253.66 77.515C253.735 77.2796 253.9 77.0833 254.119 76.969C256.088 75.942 258.1 74.937 260.107 73.979C260.218 73.9261 260.338 73.8955 260.461 73.8891C260.584 73.8826 260.706 73.9005 260.822 73.9415C260.938 73.9826 261.045 74.046 261.136 74.1283C261.227 74.2106 261.301 74.31 261.354 74.421C261.407 74.5319 261.438 74.6521 261.444 74.7748C261.45 74.8975 261.433 75.0203 261.392 75.1361C261.351 75.2519 261.287 75.3585 261.205 75.4498C261.123 75.541 261.023 75.6152 260.912 75.668C258.938 76.611 256.944 77.606 254.991 78.635C254.856 78.6983 254.708 78.7285 254.559 78.723L254.557 78.726ZM430.722 77.699C430.577 77.6989 430.433 77.6646 430.303 77.599C428.331 76.599 426.322 75.623 424.313 74.699C424.088 74.5945 423.914 74.4051 423.829 74.1724C423.744 73.9397 423.755 73.6828 423.859 73.458C423.964 73.2333 424.153 73.0593 424.386 72.9742C424.618 72.8891 424.875 72.8998 425.1 73.004C427.122 73.941 429.156 74.927 431.149 75.937C431.336 76.0316 431.487 76.1865 431.575 76.3768C431.664 76.5671 431.685 76.7817 431.637 76.986C431.589 77.1903 431.473 77.3725 431.308 77.5029C431.144 77.6334 430.94 77.7046 430.73 77.705L430.722 77.699ZM269.022 71.927C268.806 71.9271 268.597 71.8524 268.43 71.7157C268.263 71.5789 268.149 71.3886 268.106 71.177C268.063 70.9656 268.095 70.7459 268.196 70.5553C268.297 70.3646 268.46 70.2147 268.659 70.131C270.706 69.272 272.795 68.438 274.869 67.65C275.103 67.5621 275.362 67.5705 275.589 67.6735C275.817 67.7764 275.994 67.9654 276.082 68.199C276.17 68.4326 276.162 68.6917 276.059 68.9191C275.956 69.1465 275.767 69.3238 275.533 69.412C273.478 70.185 271.41 71.012 269.382 71.863C269.269 71.9056 269.149 71.9263 269.028 71.924L269.022 71.927ZM416.102 71.047C415.981 71.0466 415.862 71.0232 415.75 70.978C413.703 70.14 411.612 69.342 409.534 68.583C409.301 68.4974 409.112 68.323 409.008 68.0981C408.903 67.8731 408.892 67.616 408.977 67.383C409.019 67.2674 409.084 67.1613 409.167 67.0707C409.25 66.98 409.35 66.9068 409.462 66.855C409.574 66.8033 409.694 66.7741 409.817 66.7691C409.94 66.7641 410.063 66.7834 410.178 66.826C412.278 67.591 414.387 68.406 416.463 69.244C416.665 69.3249 416.832 69.4736 416.936 69.6645C417.04 69.8554 417.075 70.0766 417.033 70.29C416.992 70.5034 416.877 70.6956 416.709 70.8336C416.541 70.9716 416.33 71.0467 416.113 71.046L416.102 71.047ZM284.017 66.369C283.82 66.3688 283.628 66.3063 283.469 66.1905C283.309 66.0746 283.19 65.9114 283.129 65.724C283.091 65.6073 283.077 65.4843 283.086 65.362C283.096 65.2397 283.13 65.1205 283.185 65.0112C283.241 64.9019 283.318 64.8046 283.411 64.725C283.504 64.6453 283.612 64.5849 283.729 64.547C285.845 63.86 288.003 63.2 290.144 62.588C290.382 62.5196 290.638 62.5488 290.855 62.669C290.962 62.7285 291.057 62.8086 291.133 62.9047C291.21 63.0008 291.266 63.111 291.3 63.229C291.367 63.4677 291.338 63.7233 291.217 63.94C291.097 64.1568 290.895 64.3171 290.657 64.386C288.539 64.994 286.4 65.643 284.304 66.324C284.213 66.3524 284.118 66.3665 284.023 66.366L284.017 66.369ZM400.996 65.639C400.902 65.6393 400.809 65.6252 400.719 65.597C398.613 64.943 396.468 64.317 394.341 63.737C394.223 63.7047 394.112 63.6494 394.015 63.5743C393.917 63.4991 393.836 63.4056 393.775 63.299C393.714 63.1923 393.675 63.0748 393.659 62.9529C393.644 62.8311 393.653 62.7074 393.685 62.589C393.751 62.3504 393.909 62.1475 394.124 62.0247C394.339 61.9018 394.594 61.8689 394.833 61.933C396.98 62.52 399.147 63.152 401.273 63.819C401.39 63.8552 401.499 63.9142 401.594 63.9926C401.688 64.0711 401.766 64.1674 401.823 64.276C401.88 64.3846 401.915 64.5034 401.926 64.6256C401.937 64.7478 401.924 64.8709 401.887 64.988C401.827 65.1772 401.709 65.3424 401.548 65.4595C401.388 65.5766 401.195 65.6395 400.996 65.639ZM306.896 59.539C306.944 59.7818 306.893 60.0335 306.755 60.239C306.687 60.3421 306.598 60.4306 306.495 60.4992C306.392 60.5679 306.277 60.6154 306.155 60.639C303.993 61.058 301.808 61.539 299.66 62.039C299.592 62.0551 299.521 62.0635 299.451 62.064C299.24 62.0638 299.036 61.9922 298.871 61.861C298.705 61.7297 298.59 61.5464 298.542 61.341C298.514 61.2213 298.51 61.0972 298.529 60.9759C298.549 60.8546 298.593 60.7384 298.658 60.634C298.723 60.5295 298.808 60.439 298.908 60.3676C299.009 60.2962 299.122 60.2453 299.242 60.218M385.518 61.536C385.448 61.537 385.378 61.5292 385.309 61.513C383.157 61.037 380.968 60.593 378.799 60.193C378.555 60.1475 378.34 60.0074 378.199 59.8033C378.059 59.5992 378.005 59.3478 378.049 59.104C378.071 58.9833 378.117 58.8682 378.184 58.7653C378.251 58.6623 378.337 58.5735 378.438 58.504C378.539 58.4343 378.653 58.3853 378.773 58.3598C378.893 58.3342 379.017 58.3326 379.138 58.355C381.327 58.755 383.538 59.21 385.713 59.69C385.833 59.7165 385.946 59.7664 386.047 59.8368C386.148 59.9072 386.233 59.9967 386.299 60.1003C386.365 60.2038 386.41 60.3194 386.431 60.4403C386.453 60.5612 386.45 60.6851 386.423 60.805C386.377 61.0119 386.263 61.1972 386.098 61.3304C385.933 61.4636 385.728 61.5368 385.516 61.538L385.518 61.536ZM315.186 59.064C314.962 59.0639 314.745 58.983 314.575 58.8361C314.405 58.6892 314.294 58.4861 314.262 58.264C314.226 58.0189 314.289 57.7696 314.437 57.5708C314.584 57.372 314.805 57.2401 315.05 57.204C317.25 56.879 319.488 56.588 321.702 56.339C321.948 56.3112 322.195 56.3822 322.389 56.5366C322.583 56.6909 322.707 56.9159 322.735 57.162C322.749 57.2842 322.738 57.4079 322.704 57.5259C322.669 57.644 322.612 57.7541 322.535 57.85C322.458 57.9459 322.364 58.0257 322.256 58.0849C322.148 58.1441 322.03 58.1815 321.908 58.195C319.716 58.442 317.508 58.731 315.321 59.054C315.276 59.0611 315.23 59.0651 315.184 59.066L315.186 59.064ZM369.748 58.733H369.62C367.437 58.433 365.22 58.176 363.02 57.956C362.898 57.9443 362.779 57.9085 362.67 57.8506C362.562 57.7928 362.466 57.7141 362.388 57.619C362.31 57.524 362.252 57.4146 362.217 57.297C362.181 57.1795 362.17 57.0561 362.182 56.934C362.194 56.8118 362.23 56.6932 362.288 56.585C362.346 56.4768 362.424 56.381 362.519 56.3031C362.614 56.2253 362.724 56.167 362.841 56.1314C362.959 56.0959 363.082 56.0838 363.204 56.096C365.421 56.318 367.662 56.582 369.867 56.88C370.112 56.9133 370.334 57.0423 370.484 57.2387C370.634 57.4352 370.7 57.683 370.667 57.928C370.636 58.151 370.526 58.3555 370.357 58.5038C370.188 58.6521 369.97 58.7342 369.745 58.735L369.748 58.733ZM331.113 57.382C330.876 57.3824 330.647 57.2923 330.474 57.1298C330.301 56.9674 330.196 56.745 330.181 56.508C330.173 56.3855 330.189 56.2627 330.229 56.1465C330.268 56.0303 330.33 55.923 330.411 55.8308C330.492 55.7385 330.591 55.6632 330.701 55.609C330.811 55.5548 330.931 55.5229 331.053 55.515C333.272 55.373 335.526 55.266 337.753 55.201C338.001 55.1934 338.241 55.2846 338.422 55.4543C338.602 55.624 338.708 55.8584 338.715 56.106C338.722 56.354 338.631 56.5948 338.461 56.7755C338.291 56.9562 338.056 57.0621 337.808 57.07C335.602 57.135 333.368 57.24 331.173 57.38L331.113 57.382ZM353.799 57.256H353.751C351.551 57.143 349.32 57.065 347.111 57.026C346.988 57.0239 346.867 56.9976 346.755 56.9487C346.642 56.8998 346.54 56.8291 346.455 56.7408C346.37 56.6525 346.303 56.5482 346.258 56.434C346.213 56.3197 346.191 56.1977 346.193 56.075C346.197 55.8299 346.297 55.5961 346.472 55.4243C346.646 55.2525 346.882 55.1564 347.127 55.157H347.144C349.371 55.197 351.628 55.274 353.844 55.39C353.967 55.3964 354.087 55.4269 354.198 55.4798C354.309 55.5327 354.408 55.6069 354.49 55.6982C354.572 55.7895 354.635 55.8961 354.676 56.0119C354.717 56.1277 354.735 56.2504 354.728 56.373C354.716 56.6118 354.612 56.8366 354.439 57.0013C354.265 57.1659 354.035 57.2578 353.796 57.258L353.799 57.256Z" fill="white"/>
<path d="M655.652 254.966H34.97C33.5605 254.966 32.418 256.109 32.418 257.518C32.418 258.927 33.5605 260.07 34.97 260.07H655.652C657.061 260.07 658.204 258.927 658.204 257.518C658.204 256.109 657.061 254.966 655.652 254.966Z" fill="#191E3A"/>
<path d="M22.23 254.966H2.552C1.14257 254.966 0 256.109 0 257.518C0 258.927 1.14257 260.07 2.552 260.07H22.23C23.6394 260.07 24.782 258.927 24.782 257.518C24.782 256.109 23.6394 254.966 22.23 254.966Z" fill="#191E3A"/>
<path d="M684.193 260.489H666.922C666.147 260.53 665.387 260.263 664.809 259.745C664.23 259.228 663.88 258.503 663.834 257.728C663.88 256.953 664.23 256.228 664.809 255.711C665.387 255.193 666.147 254.926 666.922 254.967H684.193C684.968 254.926 685.728 255.194 686.307 255.711C686.886 256.228 687.237 256.953 687.283 257.728C687.237 258.503 686.886 259.228 686.307 259.745C685.728 260.262 684.968 260.53 684.193 260.489Z" fill="#191E3A"/>
<path d="M204.39 55.172H482.837C484.959 55.172 486.993 56.0149 488.494 57.5151C489.994 59.0154 490.837 61.0503 490.837 63.172V229.285C490.837 231.407 489.994 233.442 488.494 234.942C486.993 236.442 484.959 237.285 482.837 237.285H204.39C202.268 237.285 200.233 236.442 198.733 234.942C197.233 233.442 196.39 231.407 196.39 229.285V63.172C196.39 61.0503 197.233 59.0154 198.733 57.5151C200.233 56.0149 202.268 55.172 204.39 55.172Z" fill="black"/>
<path d="M482.354 64.682H204.873V226.24H482.354V64.682Z" fill="white"/>
<path d="M208.81 64.684H204.873V226.242H208.81V64.684Z" fill="#202020"/>
<path d="M312.575 68.62L208.81 172.389V214.44L354.635 68.61L312.575 68.62Z" fill="#F2F7FC"/>
<path d="M482.351 64.682V104.999L361.11 226.242H267.172L426.812 66.601V64.682H482.351Z" fill="#F2F7FC"/>
<path d="M482.352 118.322V143.965L400.079 226.242H374.434L482.352 118.322Z" fill="#F2F7FC"/>
<path d="M482.354 64.684H478.417V226.242H482.354V64.684Z" fill="#222044"/>
<path d="M204.873 64.681V68.618L482.354 68.618V64.681L204.873 64.681Z" fill="#222044"/>
<path d="M170.709 239.256H516.573V246.443C516.573 248.703 515.675 250.871 514.077 252.47C512.478 254.068 510.31 254.966 508.05 254.966H179.23C176.97 254.966 174.802 254.068 173.203 252.47C171.605 250.871 170.707 248.703 170.707 246.443V239.256H170.709Z" fill="black"/>
<path d="M497.33 235.783H189.893C189.437 235.783 188.985 235.873 188.564 236.047C188.142 236.222 187.759 236.478 187.436 236.801C187.114 237.123 186.858 237.506 186.683 237.928C186.509 238.349 186.419 238.801 186.419 239.257H500.793C500.793 238.337 500.428 237.455 499.779 236.804C499.129 236.152 498.248 235.785 497.328 235.783H497.33Z" fill="#171717"/>
<path d="M348.728 239.29H312.574L315.258 242.808C315.63 243.297 316.111 243.692 316.661 243.965C317.212 244.237 317.818 244.379 318.432 244.379H368.848C369.462 244.38 370.069 244.238 370.619 243.966C371.17 243.693 371.65 243.297 372.022 242.808L374.708 239.29H348.728Z" fill="#C72942"/>
<path d="M403.772 208.184H283.51C282.098 208.183 280.711 207.811 279.488 207.104C278.265 206.398 277.25 205.382 276.544 204.159C275.838 202.936 275.466 201.549 275.466 200.137C275.465 198.725 275.836 197.337 276.542 196.114L283.037 184.869L336.673 91.963C337.379 90.7399 338.395 89.7242 339.618 89.0181C340.841 88.3119 342.229 87.9402 343.641 87.9402C345.054 87.9402 346.441 88.3119 347.665 89.0181C348.888 89.7242 349.904 90.7399 350.61 91.963L369.416 124.539L395.116 169.049L410.742 196.114C411.449 197.337 411.821 198.725 411.821 200.138C411.821 201.551 411.45 202.939 410.743 204.162C410.037 205.386 409.02 206.401 407.797 207.107C406.573 207.813 405.185 208.185 403.772 208.184Z" fill="#C72942"/>
<path d="M403.772 208.187H283.51C282.098 208.186 280.711 207.814 279.488 207.107C278.265 206.401 277.25 205.385 276.544 204.162C275.838 202.939 275.466 201.552 275.466 200.14C275.465 198.728 275.836 197.34 276.542 196.117L283.037 184.872C367.962 192.054 369.418 124.531 369.418 124.531L410.741 196.116C411.448 197.339 411.82 198.727 411.821 200.14C411.821 201.553 411.449 202.941 410.743 204.164C410.037 205.388 409.02 206.404 407.797 207.11C406.573 207.816 405.185 208.188 403.772 208.187Z" fill="#A01630"/>
<path d="M403.772 208.187H320.228C370.786 208.187 395.115 169.052 395.115 169.052L410.741 196.117C411.448 197.34 411.82 198.728 411.82 200.141C411.821 201.553 411.449 202.941 410.742 204.165C410.036 205.388 409.02 206.404 407.796 207.11C406.573 207.816 405.185 208.188 403.772 208.187Z" fill="#C72942"/>
<path d="M331.01 166.138C330.342 165.873 329.627 165.751 328.91 165.778H328.359V153.218C328.359 151.218 327.464 150.199 325.7 150.199C325.168 150.19 324.653 150.392 324.269 150.76C323.749 151.283 323.272 151.848 322.844 152.449L314.132 164.104C313.889 164.422 313.688 164.691 313.522 164.911C313.356 165.131 313.193 165.366 313.04 165.602C312.892 165.822 312.77 166.059 312.678 166.308C312.598 166.528 312.556 166.761 312.554 166.995C312.537 167.376 312.603 167.755 312.748 168.108C312.893 168.46 313.112 168.777 313.392 169.036C314.087 169.581 314.96 169.847 315.841 169.784H323.941V172.684C323.895 173.394 324.111 174.095 324.549 174.656C324.757 174.871 325.007 175.043 325.283 175.16C325.558 175.278 325.855 175.339 326.154 175.341C326.454 175.342 326.751 175.284 327.028 175.17C327.305 175.055 327.556 174.886 327.767 174.673C328.206 174.107 328.42 173.399 328.367 172.685V169.769H329.205C329.891 169.814 330.575 169.652 331.168 169.304C331.399 169.127 331.584 168.896 331.705 168.631C331.825 168.366 331.879 168.076 331.861 167.785C331.905 167.456 331.847 167.122 331.695 166.828C331.542 166.533 331.303 166.292 331.01 166.138ZM323.939 156.865V165.788H317.339L323.939 156.865Z" fill="white"/>
<path d="M347.825 152.536C347.122 151.821 346.277 151.26 345.346 150.889C344.347 150.504 343.284 150.314 342.214 150.327C340.62 150.284 339.051 150.726 337.714 151.595C336.407 152.507 335.404 153.79 334.835 155.278C334.419 156.393 334.137 157.553 333.997 158.735C333.811 160.225 333.723 161.726 333.733 163.227C333.727 164.431 333.807 165.634 333.972 166.827C334.115 167.869 334.369 168.894 334.73 169.882C335.336 171.475 336.391 172.858 337.768 173.863C339.017 174.734 340.488 175.231 342.009 175.297C343.531 175.362 345.039 174.993 346.358 174.232C347.592 173.49 348.611 172.439 349.316 171.184C349.928 170.076 350.346 168.871 350.55 167.622C350.788 166.08 350.899 164.52 350.881 162.96C351.001 160.317 350.573 157.678 349.624 155.208C349.182 154.221 348.573 153.317 347.825 152.536ZM338.933 167.787C338.668 166.125 338.548 164.442 338.575 162.759C338.471 160.499 338.754 158.239 339.413 156.075C339.589 155.457 339.967 154.916 340.487 154.538C341.007 154.16 341.639 153.967 342.281 153.99C342.701 153.968 343.12 154.039 343.509 154.199C343.898 154.359 344.246 154.603 344.529 154.914C345.159 155.736 345.566 156.707 345.711 157.732C345.976 159.351 346.096 160.991 346.069 162.632C346.097 164.339 345.982 166.045 345.725 167.732C345.588 168.792 345.187 169.801 344.558 170.665C344.278 170.975 343.937 171.223 343.556 171.395C343.175 171.566 342.763 171.656 342.346 171.66C341.928 171.664 341.514 171.581 341.131 171.417C340.747 171.252 340.401 171.01 340.116 170.705C339.48 169.847 339.073 168.841 338.934 167.782L338.933 167.787Z" fill="white"/>
<path d="M371.025 166.138C370.358 165.873 369.642 165.751 368.925 165.778H368.376V153.218C368.376 151.218 367.481 150.199 365.719 150.199C365.186 150.19 364.671 150.392 364.286 150.76C363.766 151.283 363.29 151.848 362.863 152.449L354.149 164.098C353.908 164.417 353.705 164.686 353.541 164.905C353.373 165.127 353.212 165.36 353.057 165.596C352.91 165.817 352.789 166.054 352.697 166.302C352.615 166.522 352.572 166.754 352.571 166.989C352.554 167.37 352.62 167.749 352.765 168.102C352.91 168.454 353.129 168.771 353.409 169.03C354.104 169.575 354.977 169.842 355.858 169.778H363.952V172.678C363.906 173.388 364.122 174.089 364.56 174.65C364.769 174.865 365.018 175.037 365.294 175.154C365.57 175.272 365.866 175.333 366.166 175.335C366.466 175.337 366.763 175.278 367.04 175.164C367.318 175.049 367.569 174.88 367.78 174.667C368.219 174.101 368.433 173.393 368.38 172.679V169.769H369.218C369.905 169.814 370.589 169.652 371.183 169.304C371.415 169.128 371.599 168.897 371.72 168.632C371.841 168.367 371.895 168.076 371.876 167.785C371.92 167.456 371.862 167.122 371.71 166.827C371.558 166.533 371.319 166.292 371.025 166.138ZM363.954 156.865V165.788H357.354L363.954 156.865Z" fill="white"/>
<path d="M341.606 99.308L285.087 197.202C284.881 197.558 284.773 197.962 284.773 198.374C284.773 198.785 284.881 199.189 285.087 199.546C285.293 199.902 285.589 200.198 285.945 200.403C286.301 200.608 286.706 200.716 287.117 200.716H400.16C400.572 200.717 400.976 200.609 401.332 200.403C401.689 200.198 401.985 199.902 402.191 199.546C402.396 199.189 402.504 198.785 402.504 198.374C402.503 197.962 402.394 197.558 402.188 197.202L345.669 99.308C345.463 98.9521 345.167 98.6567 344.811 98.4512C344.455 98.2458 344.051 98.1377 343.64 98.1377C343.229 98.1377 342.825 98.2458 342.469 98.4512C342.113 98.6567 341.817 98.9521 341.611 99.308H341.606Z" stroke="white" stroke-width="10" stroke-miterlimit="10"/>
</g>
<defs>
<clipPath id="clip0_22_2">
<rect width="687.283" height="260.489" fill="white"/>
</clipPath>
</defs>
</svg>
